<?xml version="1.0" encoding="UTF-8"?>
<svg id="Calque_2" data-name="Calque 2" xmlns="http://www.w3.org/2000/svg" viewBox="0 0 1048.59 118.07">
  <g id="Calque_1-2" data-name="Calque 1">
    <g>
      <path d="M578.61,40.68l-15.47-8.86c-13.18-5.9-29.01-7.24-43.35-6.07-26.53,2.16-50.43,27.89-30.35,52.63,13.49,16.63,36.6,17.7,56.23,14.25,5.12-.9,11.21-2.66,15.7-5.27v-13.07h-35.98v-23.9h60.71v50.42c-18.64,15.12-45.94,18.4-69.36,16.84-68.05-4.55-85.11-85.65-21.32-111.69,24.57-10.03,60.15-6.95,83.18,5.96v28.76Z"/>
      <path d="M390.86,1.83c6.22.7,15.53,4.91,20.55,8.65,22.13,16.52,18.26,51.3-6.68,62.68l24.73,40.72h-29.61l-22.48-36.6h-46.09v36.6h-24.73V1.83h84.32ZM331.28,53.37h52.84c.98,0,8-2.21,9.15-2.83,8.51-4.6,8.6-17.3.17-22.14-2.72-1.56-9.33-3.41-12.32-3.41h-49.84v28.39Z"/>
      <path d="M0,113.13V1.83c22.74,1.07,46.77-1.42,69.36-.03,65.34,4.02,78.65,85.19,20.57,107.21-3.53,1.34-12.68,4.12-16.1,4.12H0ZM70.83,24.99H24.73v65.73h43.85c7.76,0,20.33-7.77,25.09-13.84,15.84-20.22,1.77-48.98-22.84-51.9Z"/>
      <path d="M921.88,113.13V1.83c22.76,1.04,46.73-1.38,69.36-.03,65.33,3.88,78.67,85.27,20.03,107.42-3.32,1.25-12.37,3.91-15.56,3.91h-73.83ZM946.62,90.72h43.1c19.8,0,35.97-21.25,31.65-40.5-2.48-11.05-16.15-25.23-27.9-25.23h-46.84v65.73Z"/>
      <path d="M754.75,113.88h-29.23l-11.92-21.18-70.01-.34-13.64,21.52h-28.86L666.66,1.77c4.38.86,21.48-1.27,24,.81,19.63,35.34,41.65,69.46,61.22,104.82,1.09,1.98,2.74,4.22,2.87,6.48ZM699.28,68.31l-21.36-35.84-20.61,35.84h41.97Z"/>
      <path d="M134.91,113.88L199.75,2.59c2.52-2.09,19.62.05,24-.81l65.56,112.11h-28.86l-13.64-21.52-70.01.34-11.92,21.18h-29.98ZM233.09,68.31l-20.61-35.84-21.36,35.84h41.97Z"/>
      <path d="M792.22,1.83v64.61c0,4.18,2.09,13.04,4.11,16.82,6.16,11.53,25.18,11.38,36.72,10.44,24.71-2.01,24.36-18,25.15-38.43.69-17.75-.58-35.68-.03-53.44h25.48c-.63,19.47.84,39.22.03,58.67-1.46,35.08-9.11,54.68-47.63,57.11s-66.51-3.92-69.31-48.18c-1.39-22.03,1.03-45.43,0-67.6h25.48Z"/>
    </g>
  </g>
</svg>