<?xml version="1.0" encoding="UTF-8"?>
<svg id="Calque_2" data-name="Calque 2" xmlns="http://www.w3.org/2000/svg" viewBox="0 0 997.8 316.52">
  <g id="Calque_1-2" data-name="Calque 1">
    <path d="M403.3,132.48c-.83.4-1.71,1.3-2.31,2-3.39,3.96-6.76,8.75-10,12.94-1.3,1.69-2.1,3.8-4.03,5.06l-28.98-16.56-8.61,111.24c-1.99.12-4.07-.16-6.05-.03-6.36.42-13.1,1.04-19.46,1.2-7.17.18-14.38-.19-21.54-.02-.17-3.91.49-7.93-.6-11.73l-.03-100.89c-4.73-3.49-9.5-6.97-14.3-10.36-4.42-3.12-9.32-6.84-13.77-9.75-.67-.44-1.42-.96-2.28-.87-.14,9.27.17,18.56.02,27.83-.02,1.01-.61,1.81-.62,2.82-.17,12.21.12,24.44.1,36.65,3.1,2.96,6.18,6.13,9.38,8.97s7.1,5.56,10.35,8.58c1.42,1.32,4.82,4.04,4.23,5.97l-40.43,53.09c-.67.2-1-.5-1.4-.85-2.8-2.44-4.98-5.4-7.45-8.04-8.51-9.1-18.05-18.54-25.91-28-.37-.44-.58-1.18-1.35-.94-1.34.41-4.3,8.52-5.16,10.33-4.85,10.24-9.69,20.52-14.62,30.69l-.88.29-58.2-26.73,3.41-100.89c-.06-.93-.81-1.44-1.53-1.91-5.03-3.32-12.24-5.47-17.39-9l-2.28-.22c-5.52,10.61-10.81,21.38-16.65,31.81l-7.79,1.39c-6.66.32-13.11,2.01-19.79,2.3l-.02,1.45c3.77,11.58,7.94,23.02,11.95,34.51,11.77,33.79,23.35,68.01,35.25,101.82,1.24,3.54,4.52,9.82,4.47,13.31-.01.88.2,1-.84.84-30.82-10.55-61.87-20.43-92.86-30.49-1.62-.55-3.21-1.59-2.61-3.5l12.99-39.2.02-3.24C30.29,199.39,14.99,164.37,0,129.2c-.14-.83,1.58-4.55,2.1-5.73,1.78-4.01,4.09-7.84,5.97-11.81C23.41,79.23,38.71,46.82,54.32,14.53c2.36-4.88,4.94-9.67,7.31-14.53l102.97,31.85-38.22,41.52-59.89-13.13-4.02,60.78,59.12.87c.6-.31,3.48-5.62,4.11-6.78,9.1-16.84,17.45-34.12,26.36-51.06.79-1.2,1.49-1.86,3.02-1.46,2.03,1.47,3.9,3.59,5.79,5.11,10.03,8.11,20.15,16.11,29.84,24.66,1.66,1.46,5.15,3.24,4.91,5.99-.05.59-.54,1.16-.58,1.76-1.88,28.69-4.21,57.3-5.72,86.02-.13,2.57-1.76,2.81,1.68,4.57,7.02,3.59,17.1,6.75,24.69,9.73.84.33,3.39,2.06,4.01,1.44.12-.12-.09-1.9.01-2.57,1.8-12.16,1.92-25.47,2.85-37.87,2.06-27.48,3.42-55.01,5.15-82.58.11-1.69,1.06-3.49.6-5.42l43.05-3.74c.67.47.52,1.04.57,1.72.62,8.41.28,19.57,0,28.14-.09,2.74-1.14,6.13-.62,9.17l.88,3.13,51.1-46.43,1.66,1.16c7.6,11.31,15.17,22.71,22.95,33.83.73,1.05,4.11,6.68,4.63,6.84,1.73.54,1.25-.6,1.97-1.44,8.96-10.36,16.72-21.93,25.84-32.11.49-.55,2.48-2.76,3.13-2.56.45.14,5.81,5.66,6.64,6.57,5.58,6.07,10.57,12.77,16.04,18.94,3.23,3.65,7.25,7.23,10.35,10.87.36.43,2.21,2.76,2.25,2.94.1.47-.53,1.47-.85,1.93-3.21,4.72-7.33,8.89-10.34,13.75-.31.49-1.49,1.19-.54,1.75l47.91-30.1-.93-1.36-36.91-22.47.02-2.2,96.62-60.26c2.48.66-1.56,5.73-2.32,6.86-15.21,22.66-31.63,44.65-47,67.14-1.33,1.94-7.98,11.17-8.25,12.4-.75,3.36.06,9.85-.07,13.69-.03,1.01-.58,1.8-.62,2.82-.84,21.95-.68,44.08-2.3,65.94-.18,2.38.41,4.32.6,6.62l1.6-2.7c8.64-24.95,16.88-50.16,26.21-74.73l60.34-45.21c1.69-.49,2.35.55,3.35,1.68,3.43,3.88,6.66,9.43,9.8,13.71,2.09,2.85,4.22,5.81,6.3,8.61,5.79,7.78,11.99,15.22,17.47,23.25,1.58,2.13,2.96-.92,3.94-2.39,10.9-16.4,20.55-34.13,31.37-50.65.44-.44.98-1.37,1.71-1.16.38.11,3.67,5.74,4.22,6.68,7.66,13.02,15.88,26.85,22.95,40.14,1.88,3.54,1.39,9.53,1.26,13.7-.77,24.97-3.27,50.1-4.07,75.07-.13,4.11.15,8.25.03,12.35l25.22-5.76c.14-1.79-.1-3.62.04-5.41,2.9-38.22,4.45-76.92,6.32-115.24.11-2.25-.51-7.98.25-9.5,1.26-2.51,6.44-.32,8.63,0,10.34,1.51,21.92,2.43,32.1,4.61.9.19,2.89.65,3.12,1.47l5.79,151.61,38.77-59.05,47.87,52.17-12.31-67.69c-.31-.43-.66-.5-1.16-.56-3.05-.4-7.13.17-10.37.04-1.02-.04-1.81-.59-2.82-.62-15.48-.46-31.03.38-46.52.04-2.28-.37-1.24-3.5-1.43-5.45-.89-9.31-2.92-18.84-3.99-28.12-.17-1.47-.24-7.34.26-8.32,3.52-3.36,6.84-6.93,10.33-10.32.49-.47,1.26-.65,1.74-1.12,11.75-11.43,23.08-23.17,35.1-34.31,3.43-1.27,7.22-.48,10.82-.66,19.26-.95,38.64-2.53,57.9-3.49,1.61-.08,6.18-.26,7.41.1.39.11,1.39,1.08,1.47,1.43-7.64,20.15-16.11,40.03-24.03,60.09.3.45.69.87,1.14,1.19,3.82,2.74,8.9,5.71,12.98,8.24,1.12.69,6.69,4.26,7.34,4.09,1.99-3.35,4.09-6.71,5.97-10.11,6.68-12.11,12.62-24.67,19.59-36.61,17.12-10.71,34.63-20.8,51.84-31.34,1.84-1.13,3.61-2.78,5.33-3.85,4.25-2.63,8.67-5.11,13.06-7.5l33.08,65.06-60.84,80.23,11.83,11.15c2.23.62,4.67.38,6.79.66,17.63,2.35,35.5,4.15,53.36,6.31,1.62.2,2.72.49,4.61.56.83.03,1.02-.21.87.87-.13.88-.62,1.61-1.15,2.3-3.07,4.04-8.5,8.7-12.07,12.59-24.87,27.03-49.52,54.48-74.57,81.45-2.71,2.92-5.68,6.67-8.61,9.17-3.5,2.98-3.03-2.75-2.86-5.15,1.24-17.94,4.95-36.02,6.29-53.92.09-1.14.22-3.54-.06-4.5s-5.85-4.51-7.11-5.51c-6.71-5.28-13.45-10.7-19.68-16.46-7.15-25.23-13.27-50.76-20.33-76.02-.97-3.48-2.25-6.6-3.19-10-.56-2.04-1.13-4.36-1.27-6.48l-1.13,3.74c-.57,21.49-2.73,42.79-4.05,64.18-.22,3.57.39,7.11-.8,10.66l-29.56,21.5c-11.66,9.29-23.95,17.75-35.96,26.57h-1.56c-19.62-11.81-38.93-24.2-58.6-35.89-7.59,3.2-15.18,6.47-22.68,9.86-4.42,2-8.72,4.41-13.18,6.33-.99.42-4.79,2.16-5.43,1.98-.47-.13-1.96-3.72-2.33-4.56-2.67-6.11-4.85-12.72-7.62-18.76-.48-1.06-1.44-3.64-2.7-3.64l-34.42,34.46c-1.05,0-1.53-1.2-2.28-1.77-10.25-7.78-19.97-16.38-29.84-24.66-1.77-1.48-5.42-3.14-5.94-5.53l-.1-81.33c-4.65-8.3-8.91-17-13.84-25.16-.29-.49-.69-1.13-1.36-.93l-54.19,65.71c-.33,1.13.59,1.83,1.39,2.54,3.16,2.82,7.22,5.1,10.41,7.95,8.86,1.18,17.94.43,26.92.62,1.01.02,1.81.6,2.82.62,6.87.14,14.55-.58,21.27-.04.92.07,1.41,0,1.99.88l-41.87,59.08-.86.29c-2.67-.97-5.82-.82-8.61-1.18-7.77-.99-15.72-2.49-23.55-3.42-1.72-.2-3.54.44-5.07-.66-19.07-18.23-38-36.54-56.89-54.97l-.88,3.7c.37,12.28-.73,24.52-1.15,36.7-.07,1.91.46,12.45,0,12.9-1.11,1.09-8.5.46-10.61.58-9.68.55-19.52,1.86-29.21,2.34-1.88.09-5.18.23-6.93,0-.5-.07-1.42-.53-1.42-.88v-114.97ZM777.4,92.91v38.42l51.64-10.03-51.64-28.38ZM906.48,176.04l26.36-37.55-30.92-29.52c.46,1.93-.5,3.74-.6,5.42-1.05,16.78-.82,33.71-1.67,50.51-.13,2.61-1.6,3.44.54,6.29.43.58,4.19,4.38,4.58,4.59s1.51.49,1.71.25ZM512.27,170.85c.12-.14.05-.73.33-1.08,5.54-6.81,10.43-14.62,15.51-21.79,1.37-1.93,3.23-3.84,4.54-5.78.54-.81,1.72-2.15,1.44-3.1l-29.84-21.22c-.73-.32-3.47-2.57-3.99-2.03-.42.44.54,2.83.6,3.7.5,7.63.41,15.92.57,23.51.15,7.05-.21,14.13.03,21.18l8.53,6.38c.47.34,2.09.44,2.27.23Z"/>
  </g>
</svg>